<?xml version="1.0" encoding="UTF-8" standalone="no"?>
<!-- Created with Inkscape (http://www.inkscape.org/) -->

<svg
   xmlns:dc="http://purl.org/dc/elements/1.1/"
   xmlns:cc="http://creativecommons.org/ns#"
   xmlns:rdf="http://www.w3.org/1999/02/22-rdf-syntax-ns#"
   xmlns:svg="http://www.w3.org/2000/svg"
   xmlns="http://www.w3.org/2000/svg"
   xmlns:sodipodi="http://sodipodi.sourceforge.net/DTD/sodipodi-0.dtd"
   xmlns:inkscape="http://www.inkscape.org/namespaces/inkscape"
   version="1.1"
   id="svg4013"
   width="13"
   height="11"
   viewBox="0 0 13 11"
   sodipodi:docname="arrow.svg"
   inkscape:version="0.92.4 (5da689c313, 2019-01-14)">
  <metadata
     id="metadata4019">
    <rdf:RDF>
      <cc:Work
         rdf:about="">
        <dc:format>image/svg+xml</dc:format>
        <dc:type
           rdf:resource="http://purl.org/dc/dcmitype/StillImage" />
        <dc:title></dc:title>
      </cc:Work>
    </rdf:RDF>
  </metadata>
  <defs
     id="defs4017" />
  <sodipodi:namedview
     pagecolor="#ffffff"
     bordercolor="#666666"
     borderopacity="1"
     objecttolerance="10"
     gridtolerance="10"
     guidetolerance="10"
     inkscape:pageopacity="0"
     inkscape:pageshadow="2"
     inkscape:window-width="1366"
     inkscape:window-height="706"
     id="namedview4015"
     showgrid="false"
     fit-margin-top="0"
     fit-margin-left="0"
     fit-margin-right="0"
     fit-margin-bottom="0"
     inkscape:zoom="15.170655"
     inkscape:cx="0.5093434"
     inkscape:cy="-1.7562927"
     inkscape:window-x="-8"
     inkscape:window-y="-8"
     inkscape:window-maximized="1"
     inkscape:current-layer="svg4013" />
  <g
     id="g4041"
     transform="matrix(0.82112458,0,0,0.93481413,-0.90206341,-3.1284405)">
    <path
       style="display:inline;fill:#8b8985;stroke-width:0.10881257"
       d="m 1.316129,14.897727 c -0.3155988,-0.310641 -0.2839371,-0.797963 0.06963,-1.07171 0.2731069,-0.211451 0.4259566,-0.223744 2.7819832,-0.223744 2.3560266,0 2.5088764,0.01229 2.7819832,0.223744 0.3535669,0.273747 0.3852285,0.761069 0.06963,1.07171 -0.2071684,0.203915 -0.3655913,0.215909 -2.8516129,0.215909 -2.4860215,0 -2.6444444,-0.01199 -2.8516135,-0.215909 z m 9.676017,-0.599871 c -0.17984,-0.123986 -0.243759,-0.276616 -0.243759,-0.582064 0,-0.3955 0.09072,-0.500398 2.029032,-2.346123 1.115968,-1.062661 2.029033,-1.9898071 2.029033,-2.060324 0,-0.070517 -0.888387,-1.0238667 -1.974194,-2.1185553 -1.782697,-1.7972803 -1.974193,-2.026274 -1.974193,-2.3607666 0,-0.452424 0.2782,-0.7277504 0.735346,-0.7277504 0.290608,0 0.643328,0.310039 2.704008,2.3768077 1.303393,1.3072443 2.40522,2.3723913 2.448506,2.3669935 0.150453,-0.018763 0.239533,0.4214924 0.146837,0.7257018 -0.05129,0.1683358 -0.09751,0.2452009 -0.10269,0.170811 -0.0052,-0.07439 -0.191517,0.063131 -0.414071,0.3056023 -0.222553,0.242471 -1.354502,1.33565 -2.51544,2.429288 -2.200508,2.072941 -2.357533,2.172594 -2.868415,1.820379 z M 1.316129,9.7159091 C 1.0005302,9.4052679 1.0321919,8.9179459 1.3857587,8.644199 1.6588656,8.4327477 1.8117153,8.4204545 4.1677419,8.4204545 c 2.3560266,0 2.5088764,0.012293 2.7819832,0.2237445 0.3535669,0.2737469 0.3852285,0.7610689 0.06963,1.0717101 -0.2071684,0.2039141 -0.3655913,0.2159091 -2.8516129,0.2159091 -2.4860215,0 -2.6444444,-0.011995 -2.8516132,-0.2159091 z m 0.06963,-5.081699 C 1.0321919,4.3604632 1.0005302,3.8731411 1.316129,3.5625 1.5232975,3.3585858 1.6817204,3.3465909 4.1677419,3.3465909 c 2.4860216,0 2.6444445,0.011995 2.8516129,0.2159091 0.3155988,0.3106411 0.2839372,0.7979632 -0.06963,1.0717101 -0.2731068,0.2114513 -0.4259566,0.2237444 -2.7819832,0.2237444 -2.3560266,0 -2.5088763,-0.012293 -2.7819826,-0.2237444 z"
       id="path4043"
       inkscape:connector-curvature="0" />
  </g>
</svg>
