<?xml version="1.0" encoding="UTF-8" standalone="no"?>
<!-- Created with Inkscape (http://www.inkscape.org/) -->

<svg
   xmlns:dc="http://purl.org/dc/elements/1.1/"
   xmlns:cc="http://creativecommons.org/ns#"
   xmlns:rdf="http://www.w3.org/1999/02/22-rdf-syntax-ns#"
   xmlns:svg="http://www.w3.org/2000/svg"
   xmlns="http://www.w3.org/2000/svg"
   xmlns:sodipodi="http://sodipodi.sourceforge.net/DTD/sodipodi-0.dtd"
   xmlns:inkscape="http://www.inkscape.org/namespaces/inkscape"
   version="1.1"
   id="svg4059"
   width="15.999999"
   height="14.000001"
   viewBox="0 0 15.999999 14.000001"
   sodipodi:docname="car.svg"
   inkscape:version="0.92.4 (5da689c313, 2019-01-14)">
  <metadata
     id="metadata4065">
    <rdf:RDF>
      <cc:Work
         rdf:about="">
        <dc:format>image/svg+xml</dc:format>
        <dc:type
           rdf:resource="http://purl.org/dc/dcmitype/StillImage" />
        <dc:title></dc:title>
      </cc:Work>
    </rdf:RDF>
  </metadata>
  <defs
     id="defs4063" />
  <sodipodi:namedview
     pagecolor="#ffffff"
     bordercolor="#666666"
     borderopacity="1"
     objecttolerance="10"
     gridtolerance="10"
     guidetolerance="10"
     inkscape:pageopacity="0"
     inkscape:pageshadow="2"
     inkscape:window-width="1366"
     inkscape:window-height="706"
     id="namedview4061"
     showgrid="false"
     fit-margin-top="0"
     fit-margin-left="0"
     fit-margin-right="0"
     fit-margin-bottom="0"
     inkscape:zoom="15.170655"
     inkscape:cx="-0.047835714"
     inkscape:cy="12.255125"
     inkscape:window-x="-8"
     inkscape:window-y="-8"
     inkscape:window-maximized="1"
     inkscape:current-layer="svg4059" />
  <g
     id="g4069"
     transform="matrix(0.10435724,0,0,0.10712114,-0.05893701,-2.3565603)">
    <path
       style="display:inline;fill:#8b8985"
       d="M 96.993526,152.12508 C 86.613217,148.72144 79.357929,141.44578 75.213687,130.2841 l -1.736339,-4.67648 -6.988674,-1.22481 C 62.248695,123.63972 49.057696,123.12692 32.95,123.079 13.725349,123.0218 6.0689108,122.66891 5.2,121.8 c -1.83712,-1.83712 -1.4278598,-5.60769 0.7342585,-6.76482 1.172142,-0.62731 11.1208865,-1.04121 25.2500005,-1.05049 12.823657,-0.008 23.9549,-0.41986 24.736094,-0.9143 0.982514,-0.62187 3.210242,-11.94572 7.226772,-36.734691 C 66.340656,56.626065 68.963997,39.0375 68.976772,37.25 L 69,34 42.25,33.985258 C 12.535595,33.968883 10.715091,33.648978 10.195997,28.352628 9.5508584,21.770246 7.582548,22 64.619177,22 H 116.0955 l 2.20225,2.380886 c 1.42593,1.541598 4.10971,8.856194 7.61333,20.75 2.97609,10.103013 5.78485,19.120037 6.24168,20.037832 0.45683,0.917795 2.29685,1.971443 4.08892,2.341439 5.76719,1.190709 10.71715,5.204442 13.32438,10.804212 2.24726,4.826634 2.41508,6.340712 2.42417,21.870531 0.005,9.1767 -0.41869,17.81183 -0.94236,19.1892 -1.1787,3.10021 -3.93945,4.63314 -9.87261,5.48184 -4.53565,0.6488 -4.6049,0.71695 -6.93787,6.82657 -4.80378,12.58022 -15.13064,20.40008 -27.67022,20.95288 -3.88694,0.17135 -8.195083,-0.0583 -9.573644,-0.51031 z m 16.920524,-13.08123 c 14.91136,-7.60721 15.97747,-30.65196 1.82289,-39.403062 -6.79882,-4.203392 -12.36867,-4.544922 -19.246061,-1.180127 -4.454073,2.179179 -6.129222,3.727869 -8.47509,7.835329 -5.482749,9.59994 -4.845245,19.99951 1.703046,27.78171 5.686865,6.75846 16.379885,8.95323 24.195215,4.96615 z M 75.038891,107.36109 c 0.714347,-2.55139 3.04491,-7.2537 5.179029,-10.44957 9.21778,-13.803734 24.13741,-18.325799 37.73264,-11.436573 7.70562,3.904733 12.80531,10.666422 17.93122,23.775053 1.19043,3.04432 4.52044,3.75018 5.51123,1.16821 1.06381,-2.77223 0.5401,-21.784342 -0.69945,-25.392138 -1.3312,-3.87455 -4.61422,-5.989172 -9.33278,-6.01133 C 125.49956,78.987217 124.35028,76.967913 117.69293,55 L 111.48042,34.5 96.884158,34.224091 c -10.903847,-0.206112 -14.857556,0.04686 -15.629163,1 -1.056598,1.305184 -12.279801,69.049779 -12.263824,74.025909 0.0071,2.22397 0.462178,2.75 2.378868,2.75 1.966127,0 2.591388,-0.79058 3.668852,-4.63891 z M 153.39994,101.5 c 0.001,-8.25 0.15629,-11.491932 0.34419,-7.204294 0.1879,4.287638 0.18676,11.037634 -0.003,15.000004 -0.1893,3.96236 -0.34304,0.45429 -0.34164,-7.79571 z M 4.0091379,93.51101 C 3.3294745,92.692066 2.425535,92.237005 2.0003833,92.499763 0.7715569,93.25922 0.04977788,89.020231 1.0048065,86.652768 1.482438,85.468745 1.9017512,84.863017 1.9366137,85.306704 c 0.034862,0.443687 1.0635141,0.106187 2.2858925,-0.75 C 6.063207,83.267427 10.062059,83 27.5,83 50.832282,83 53,83.501696 53,88.901716 53,94.660374 51.568363,95 27.293704,95 8.9871717,95 5.0351489,94.747278 4.0091379,93.51101 Z M 9.5714286,60.428571 c -2.0210392,-2.021039 -2.0210392,-6.836103 0,-8.857142 C 10.904452,50.238405 14.469697,50 33.071429,50 53.666667,50 55.121607,50.121607 57,52 c 1.1,1.1 2,2.9 2,4 0,1.1 -0.9,2.9 -2,4 -1.878393,1.878393 -3.333333,2 -23.928571,2 C 14.469697,62 10.904452,61.761595 9.5714286,60.428571 Z"
       id="path4071"
       inkscape:connector-curvature="0" />
  </g>
</svg>
