<?xml version="1.0" encoding="UTF-8" standalone="no"?>
<!-- Created with Inkscape (http://www.inkscape.org/) -->

<svg
   xmlns:dc="http://purl.org/dc/elements/1.1/"
   xmlns:cc="http://creativecommons.org/ns#"
   xmlns:rdf="http://www.w3.org/1999/02/22-rdf-syntax-ns#"
   xmlns:svg="http://www.w3.org/2000/svg"
   xmlns="http://www.w3.org/2000/svg"
   xmlns:sodipodi="http://sodipodi.sourceforge.net/DTD/sodipodi-0.dtd"
   xmlns:inkscape="http://www.inkscape.org/namespaces/inkscape"
   version="1.1"
   id="svg3901"
   width="17"
   height="19"
   viewBox="0 0 17 19"
   sodipodi:docname="contacts.svg"
   inkscape:version="0.92.4 (5da689c313, 2019-01-14)">
  <metadata
     id="metadata3907">
    <rdf:RDF>
      <cc:Work
         rdf:about="">
        <dc:format>image/svg+xml</dc:format>
        <dc:type
           rdf:resource="http://purl.org/dc/dcmitype/StillImage" />
        <dc:title />
      </cc:Work>
    </rdf:RDF>
  </metadata>
  <defs
     id="defs3905" />
  <sodipodi:namedview
     pagecolor="#ffffff"
     bordercolor="#666666"
     borderopacity="1"
     objecttolerance="10"
     gridtolerance="10"
     guidetolerance="10"
     inkscape:pageopacity="0"
     inkscape:pageshadow="2"
     inkscape:window-width="1366"
     inkscape:window-height="706"
     id="namedview3903"
     showgrid="false"
     fit-margin-top="0"
     fit-margin-left="0"
     fit-margin-right="0"
     fit-margin-bottom="0"
     inkscape:zoom="15.170655"
     inkscape:cx="4.4816209"
     inkscape:cy="4.228706"
     inkscape:window-x="-8"
     inkscape:window-y="-8"
     inkscape:window-maximized="1"
     inkscape:current-layer="g3911" />
  <g
     id="g3911"
     transform="matrix(0.10949765,0,0,0.10795455,0.14015708,0.13183347)"
     style="display:inline">
    <path
       style="display:inline;fill:#b2b1ae"
       d="M 34.501924,157.88541 C 28.799595,156.52013 23.299342,152.36464 20.186775,147.07018 L 17.5,142.5 V 89 35.5 l 2.686775,-4.570184 c 3.3281,-5.661074 8.749894,-9.513976 15.386465,-10.934118 3.371079,-0.721369 21.489022,-0.986647 54,-0.790654 54.44716,0.328236 52.67827,0.11313 59.84224,7.277098 2.0379,2.037908 4.12811,4.81741 4.6449,6.176672 1.24595,3.277097 1.24595,109.405276 0,112.682376 -0.51679,1.35926 -2.607,4.13876 -4.6449,6.17667 -7.19222,7.19222 -5.23763,6.96269 -60.91548,7.15346 -29.050772,0.0995 -51.675132,-0.22974 -53.998076,-0.78591 z M 138.02002,145.48965 c 1.60638,-0.83069 3.38403,-2.37611 3.95034,-3.43426 1.41481,-2.64361 1.41481,-103.467173 0,-106.110781 C 139.3701,31.085992 138.40541,31 86.5,31 34.594591,31 33.629897,31.08599 31.029644,35.944609 29.618779,38.580835 29.6145,139.41117 31.025144,142.04698 c 2.573722,4.80904 3.263049,4.87031 55.274519,4.91298 41.625107,0.0342 49.229057,-0.18201 51.720357,-1.47031 z M 68.226688,123.71172 C 52.599966,109.72251 51.892839,108.3797 56.932909,102.26523 60.599404,97.817131 60.617145,97.592896 57.75,91.937829 55.773351,88.039149 55.5,85.981384 55.5,75 c 0,-14.422443 1.297936,-18.103306 8.582098,-24.338277 10.75632,-9.20701 28.706009,-8.881794 39.611602,0.717691 6.73004,5.924023 8.25792,10.045952 8.28434,22.349587 0.0167,7.778161 -0.48732,11.78037 -2.1036,16.703905 l -2.12556,6.474904 4.12556,4.68689 C 114.18332,104.21773 116,107.30606 116,108.60812 116,112.13617 88.867287,136 84.855965,136 82.554688,136 79.109698,133.45431 68.226688,123.71172 Z M 92.821821,115.75 c 8.288189,-7.22715 9.523749,-10.53433 3.428179,-9.1761 -3.565711,0.79452 -17.436379,0.94055 -23.652383,0.249 -1.59631,-0.1776 -3.074551,0.17432 -3.284979,0.78204 C 68.939729,108.6819 83.343434,122 84.881089,122 c 0.425231,0 3.998561,-2.8125 7.940732,-6.25 z m -0.806691,-21 C 97.270358,91.178682 99.371797,85.975145 99.778108,75.527484 100.19661,64.766322 98.561955,60.778902 92.408374,57.550489 87.096377,54.763603 78.102379,54.786454 74.338765,57.596397 68.425777,62.01108 67.5,64.34356 67.5,74.826551 c 0,7.801779 0.398182,10.44739 2.057944,13.673449 2.495153,4.849798 8.939288,8.5 15.006063,8.5 2.645895,0 5.335228,-0.812092 7.451123,-2.25 z M 2,138 c -1.71814248,-1.71814 -2,-3.33333 -2,-11.46104 0,-8.445 0.23503552,-9.68002 2.1885614,-11.5 2.7312684,-2.54457 4.9213951,-2.57994 7.9506546,-0.12843 2.127216,1.72152 2.394754,2.85005 2.704133,11.40666 0.309556,8.56152 0.137324,9.70214 -1.75,11.58946 C 8.4511539,140.54885 4.5884985,140.5885 2,138 Z M 1.556704,99.777494 C 0.42144073,98.156678 0,95.062663 0,88.348922 0,77.575825 1.0523164,75.709398 6.8513858,76.19705 11.681439,76.603216 12.966653,79.396309 12.985258,89.527494 13.003135,99.261855 11.579397,102 6.5,102 4.1340099,102 2.6442711,101.33021 1.556704,99.777494 Z M 2.1885614,60.961045 C 0.22170267,59.128637 0,57.918774 0,49.017749 0,39.916502 0.18021198,38.987183 2.2225062,37.556704 5.2881522,35.409442 8.3362184,35.609048 10.595012,38.104988 12.200344,39.878859 12.5,41.779147 12.5,50.185599 c 0,8.720632 -0.244205,10.154191 -1.94113,11.395012 -2.7266637,1.993786 -5.810193,1.765544 -8.3703086,-0.619566 z"
       id="path3917"
       inkscape:connector-curvature="0" />
  </g>
</svg>
