<?xml version="1.0" encoding="UTF-8" standalone="no"?>
<!-- Created with Inkscape (http://www.inkscape.org/) -->

<svg
   xmlns:dc="http://purl.org/dc/elements/1.1/"
   xmlns:cc="http://creativecommons.org/ns#"
   xmlns:rdf="http://www.w3.org/1999/02/22-rdf-syntax-ns#"
   xmlns:svg="http://www.w3.org/2000/svg"
   xmlns="http://www.w3.org/2000/svg"
   xmlns:sodipodi="http://sodipodi.sourceforge.net/DTD/sodipodi-0.dtd"
   xmlns:inkscape="http://www.inkscape.org/namespaces/inkscape"
   version="1.1"
   id="svg4958"
   width="17"
   height="19"
   viewBox="0 0 17 19"
   sodipodi:docname="flag.svg"
   inkscape:version="0.92.4 (5da689c313, 2019-01-14)">
  <metadata
     id="metadata4964">
    <rdf:RDF>
      <cc:Work
         rdf:about="">
        <dc:format>image/svg+xml</dc:format>
        <dc:type
           rdf:resource="http://purl.org/dc/dcmitype/StillImage" />
        <dc:title />
      </cc:Work>
    </rdf:RDF>
  </metadata>
  <defs
     id="defs4962" />
  <sodipodi:namedview
     pagecolor="#ffffff"
     bordercolor="#666666"
     borderopacity="1"
     objecttolerance="10"
     gridtolerance="10"
     guidetolerance="10"
     inkscape:pageopacity="0"
     inkscape:pageshadow="2"
     inkscape:window-width="1366"
     inkscape:window-height="706"
     id="namedview4960"
     showgrid="false"
     fit-margin-top="0"
     fit-margin-left="0"
     fit-margin-right="0"
     fit-margin-bottom="0"
     inkscape:zoom="10.727273"
     inkscape:cx="-7.6494851"
     inkscape:cy="10.845548"
     inkscape:window-x="-8"
     inkscape:window-y="-8"
     inkscape:window-maximized="1"
     inkscape:current-layer="g4968" />
  <g
     id="g4968"
     transform="scale(0.10967742,0.10795455)"
     sodipodi:insensitive="true">
    <path
       style="display:inline;fill:#999793"
       d="M 27.654988,149.17126 C 26.158848,147.51804 26,142.25825 26,94.371259 26,54.504724 25.703128,41.103128 24.8,40.2 24.033135,39.433135 20.130791,39 13.988561,39 5.5798847,39 4.0925386,38.734869 2.1029698,36.881304 c -1.54274139,-1.437282 -2.09020713,-2.804165 -1.70221616,-4.25 0.31456534,-1.172217 0.5780816,-2.396572 0.58559168,-2.720789 0.00751,-0.324217 1.15982858,-1.111717 2.56070768,-1.75 3.5596103,-1.621867 144.265607,-1.658625 147.821137,-0.03862 2.10469,0.95896 3.56689,3.419767 3.61816,6.089147 0.008,0.391075 -0.9712,1.628575 -2.17491,2.75 -1.88776,1.758712 -3.5096,2.038955 -11.8,2.038955 -6.14223,0 -10.04457,0.433135 -10.81144,1.2 -0.90323,0.903227 -1.2,14.343336 -1.2,54.345012 0,50.216031 -0.10079,53.236231 -1.82874,54.800001 -1.00581,0.91025 -2.5027,1.65499 -3.32642,1.65499 -0.82372,0 -5.73828,-2.92498 -10.92126,-6.49996 -5.18297,-3.57498 -10.18156,-6.49998 -11.10798,-6.5 -0.92641,-2e-5 -6.551414,2.92428 -12.499996,6.49845 -5.948582,3.57416 -11.24577,6.49916 -11.77153,6.5 -0.525759,8.3e-4 -6.20368,-2.92349 -12.617603,-6.49849 -6.413923,-3.575 -12.29254,-6.5 -13.063594,-6.5 -0.771053,0 -5.417127,2.925 -10.324607,6.5 -4.907481,3.575 -9.666453,6.5 -10.575493,6.5 -0.909041,0 -2.397546,-0.82293 -3.307789,-1.82874 z M 89.684396,130.50151 C 95.632978,126.92735 101.175,124.00378 102,124.0047 c 0.825,9.1e-4 4.2,1.7988 7.5,3.9953 3.3,2.1965 6.5625,3.99507 7.25,3.99682 0.98189,0.002 1.25,-9.84039 1.25,-45.889831 0,-40.925933 -0.1712,-45.958707 -1.58179,-46.5 -2.06542,-0.792577 -75.771,-0.792577 -77.836423,0 C 37.17155,40.148148 37,45.13699 37,85.606989 37,136.89682 36.348951,133.54464 45.136319,127.5 c 2.798458,-1.925 5.60011,-3.49861 6.225893,-3.4969 0.625783,0.002 6.312788,2.91688 12.637788,6.47817 6.325,3.56129 12.257978,6.4849 13.184396,6.4969 0.926418,0.012 6.551418,-2.90249 12.5,-6.47666 z M 51.222506,103.4433 c -2.639307,-1.84865 -2.983547,-6.539402 -0.651077,-8.871871 2.357119,-2.35712 51.500021,-2.35712 53.857141,0 2.33247,2.332469 1.98823,7.023221 -0.65108,8.871871 -3.30342,2.3138 -49.251563,2.3138 -52.554984,0 z M 50.654988,71.171259 C 48.292862,68.56114 48.565841,64.417505 51.222506,62.556704 53.084513,61.252503 57.346825,61 77.5,61 104.09528,61 106,61.394426 106,66.901716 106,72.756534 104.85524,73 77.326247,73 54.360881,73 52.174294,72.850075 50.654988,71.171259 Z"
       id="path4972"
       inkscape:connector-curvature="0"
       sodipodi:insensitive="true" />
  </g>
</svg>
