<?xml version="1.0" encoding="UTF-8" standalone="no"?>
<!-- Created with Inkscape (http://www.inkscape.org/) -->

<svg
   xmlns:dc="http://purl.org/dc/elements/1.1/"
   xmlns:cc="http://creativecommons.org/ns#"
   xmlns:rdf="http://www.w3.org/1999/02/22-rdf-syntax-ns#"
   xmlns:svg="http://www.w3.org/2000/svg"
   xmlns="http://www.w3.org/2000/svg"
   xmlns:sodipodi="http://sodipodi.sourceforge.net/DTD/sodipodi-0.dtd"
   xmlns:inkscape="http://www.inkscape.org/namespaces/inkscape"
   version="1.1"
   id="svg3817"
   width="16.862913"
   height="19.240707"
   viewBox="0 0 16.862914 19.240707"
   sodipodi:docname="location.svg"
   inkscape:version="0.92.4 (5da689c313, 2019-01-14)">
  <metadata
     id="metadata3823">
    <rdf:RDF>
      <cc:Work
         rdf:about="">
        <dc:format>image/svg+xml</dc:format>
        <dc:type
           rdf:resource="http://purl.org/dc/dcmitype/StillImage" />
        <dc:title></dc:title>
      </cc:Work>
    </rdf:RDF>
  </metadata>
  <defs
     id="defs3821" />
  <sodipodi:namedview
     pagecolor="#ffffff"
     bordercolor="#666666"
     borderopacity="1"
     objecttolerance="10"
     gridtolerance="10"
     guidetolerance="10"
     inkscape:pageopacity="0"
     inkscape:pageshadow="2"
     inkscape:window-width="1366"
     inkscape:window-height="706"
     id="namedview3819"
     showgrid="false"
     inkscape:zoom="15.170655"
     inkscape:cx="17.317203"
     inkscape:cy="13.686683"
     inkscape:window-x="-8"
     inkscape:window-y="-8"
     inkscape:window-maximized="1"
     inkscape:current-layer="g3827"
     fit-margin-top="0"
     fit-margin-left="0"
     fit-margin-right="0"
     fit-margin-bottom="0" />
  <g
     id="g3827"
     style="display:inline"
     transform="matrix(0.10963366,0,0,0.10963366,-0.06017342,-0.05481683)">
    <path
       style="display:inline;fill:#a2a19d"
       d="M 72.82801,173.75 C 69.920927,171.11578 20.029685,114.69658 15.24183,108.62902 10.210683,102.25314 6.4537538,95.252984 3.3653584,86.5 0.98704642,79.759501 0.54363068,76.925624 0.54890519,68.5 0.55234823,63 0.94544733,57.6 1.4224587,56.5 1.8994701,55.4 3.242216,51.773983 4.4063385,48.442185 10.842284,30.022065 27.153754,13.974595 46.981203,6.5563891 61.060595,1.2887512 65.035197,0.5 77.5,0.5 c 12.464803,0 16.439405,0.7887512 30.5188,6.0563891 10.18859,3.8119429 18.74942,9.3259219 26.42338,17.0191529 8.02439,8.044538 12.36166,14.807384 16.72878,26.084168 2.63636,6.807609 3.05384,9.223294 3.16963,18.34029 0.11661,9.181164 -0.22223,11.504828 -2.69765,18.5 -5.29302,14.95726 -5.88975,15.76582 -41.05427,55.62751 C 81.737222,174.83286 80.597088,176 77.5,176 c -1.203907,0 -3.306302,-1.0125 -4.67199,-2.25 z m 31.02612,-45.71117 C 130.08617,98.071654 132.89922,94.407227 136.12578,86 139.12602,78.182481 139.79157,64.247615 137.5376,56.440369 132.245,38.108078 117.95484,23.745908 98.578411,17.284869 91.463187,14.912309 88.950013,14.591136 77.5,14.591136 c -11.450013,0 -13.963187,0.321173 -21.078411,2.693733 -19.376426,6.461039 -33.666588,20.823209 -38.959184,39.1555 -2.249518,7.791793 -1.595829,21.7644 1.378708,29.469868 3.22676,8.358847 7.335112,13.774199 29.655411,39.089763 27.021776,30.64795 28.320926,32.01777 29.772334,31.39172 0.677128,-0.29207 12.1905,-13.05087 25.585272,-28.35289 z M 74,112.03429 C 63.434218,108.50862 38.16337,97.532566 36.75,95.855247 35.195334,94.010245 35,91.235911 35,71 35,50.748872 35.194165,47.995574 36.75,46.184699 38.873861,43.712683 74.373081,27 77.5,27 80.626919,27 116.12614,43.712683 118.25,46.184699 119.80583,47.995574 120,50.748872 120,71 c 0,20.235704 -0.19535,23.010325 -1.75,24.85579 -1.61434,1.916318 -33.516429,15.32846 -39.25,16.50131 -1.375,0.28127 -3.625,0.136 -5,-0.32281 z M 89.932397,94.027338 c 6.763238,-2.734964 12.920233,-5.490065 13.682203,-6.122445 1.9464,-1.615373 1.99381,-25.155069 0.0539,-26.765051 -1.00082,-0.830607 -4.404882,-0.07694 -13.706629,3.034673 L 77.586742,68.314235 65.11239,64.184873 c -9.306314,-3.080652 -12.809335,-3.85135 -13.793371,-3.034672 -1.936579,1.607218 -1.869144,25.148347 0.07667,26.763225 1.178924,0.97842 23.976833,10.748417 25.672115,11.001731 0.31229,0.04666 6.101359,-2.152855 12.864597,-4.887819 z M 84.805828,51.908196 C 88.212623,50.757703 91,49.265444 91,48.592064 91,47.268661 80.079772,41.666667 77.5,41.666667 c -2.58876,0 -13.5,5.60423 -13.5,6.933868 0,1.173197 9.767515,5.153659 13.055828,5.320518 0.855706,0.04342 4.343206,-0.862365 7.75,-2.012857 z"
       id="path3831"
       inkscape:connector-curvature="0" />
  </g>
</svg>
