<?xml version="1.0" encoding="UTF-8" standalone="no"?>
<!-- Created with Inkscape (http://www.inkscape.org/) -->

<svg
   xmlns:dc="http://purl.org/dc/elements/1.1/"
   xmlns:cc="http://creativecommons.org/ns#"
   xmlns:rdf="http://www.w3.org/1999/02/22-rdf-syntax-ns#"
   xmlns:svg="http://www.w3.org/2000/svg"
   xmlns="http://www.w3.org/2000/svg"
   xmlns:sodipodi="http://sodipodi.sourceforge.net/DTD/sodipodi-0.dtd"
   xmlns:inkscape="http://www.inkscape.org/namespaces/inkscape"
   version="1.1"
   id="svg3985"
   width="17"
   height="19"
   viewBox="0 0 17 19"
   sodipodi:docname="order.svg"
   inkscape:version="0.92.4 (5da689c313, 2019-01-14)">
  <metadata
     id="metadata3991">
    <rdf:RDF>
      <cc:Work
         rdf:about="">
        <dc:format>image/svg+xml</dc:format>
        <dc:type
           rdf:resource="http://purl.org/dc/dcmitype/StillImage" />
        <dc:title />
      </cc:Work>
    </rdf:RDF>
  </metadata>
  <defs
     id="defs3989" />
  <sodipodi:namedview
     pagecolor="#ffffff"
     bordercolor="#666666"
     borderopacity="1"
     objecttolerance="10"
     gridtolerance="10"
     guidetolerance="10"
     inkscape:pageopacity="0"
     inkscape:pageshadow="2"
     inkscape:window-width="1366"
     inkscape:window-height="706"
     id="namedview3987"
     showgrid="false"
     fit-margin-top="0"
     fit-margin-left="0"
     fit-margin-right="0"
     fit-margin-bottom="0"
     inkscape:zoom="15.170655"
     inkscape:cx="-9.6410616"
     inkscape:cy="9.1470979"
     inkscape:window-x="-8"
     inkscape:window-y="-8"
     inkscape:window-maximized="1"
     inkscape:current-layer="g3995" />
  <g
     id="g3995"
     transform="scale(0.10961827,0.10795455)">
    <path
       style="display:inline;fill:#a2a19e"
       d="m 123,153.45892 c -4.56739,-2.04781 -8.71126,-6.0414 -11.11191,-10.70892 L 109.95935,139 H 60.702182 C 17.739065,139 11.161022,138.80109 9.2225062,137.4433 6.5269216,135.55524 6.3423769,131.90512 8.8287407,129.65499 10.478136,128.16231 15.472726,128 59.757312,128 c 43.302878,0 49.285358,-0.18553 50.671258,-1.57143 0.86429,-0.86428 1.57143,-1.97363 1.57143,-2.4652 0,-1.92899 6.69605,-8.37419 10.49142,-10.09839 7.58528,-3.44592 18.59992,-1.89405 24.36458,3.43275 8.29855,7.66823 10.16693,18.43817 4.62554,26.6631 -1.65297,2.45346 -4.93192,5.81484 -7.28657,7.46975 -3.5524,2.49672 -5.42285,3.05902 -10.98807,3.30325 -4.49956,0.19746 -7.8588,-0.22213 -10.2069,-1.27491 z M 139.6,140.6 c 3.78295,-3.78295 4.41436,-7.73777 1.98531,-12.43502 -3.76204,-7.275 -15.40858,-7.275 -19.17062,0 -4.05961,7.85041 0.88673,15.7163 9.93531,15.79958 3.07103,0.0283 4.53792,-0.65248 7.25,-3.36456 z M 23,113.06097 C 17.936551,112.04332 13.725754,109.59062 10.254303,105.63685 0.96936265,95.061891 4.1890651,79.213561 16.935504,72.75 28.209433,67.03313 41.463112,71.146803 47.049346,82.096727 L 49.040648,86 h 49.330453 c 32.844609,0 50.369239,0.362124 52.438819,1.083581 4.952,1.726278 5.56857,8.045078 0.90696,9.294794 -1.21928,0.326874 -24.59873,0.60046 -51.954335,0.60797 L 50.025089,97 47.409673,101.14309 C 41.351897,110.73922 32.631815,114.99675 23,113.06097 Z m 8.401426,-11.45534 C 35.790097,99.77193 38,96.446935 38,91.677494 38,88.601128 37.297527,87.097527 34.6,84.4 31.812698,81.612698 30.443137,81 27,81 c -3.443137,0 -4.812698,0.612698 -7.6,3.4 -2.427358,2.427358 -3.4,4.301027 -3.4,6.54966 0,4.552455 2.648054,8.991945 6.314715,10.58668 4.054229,1.76331 5.014838,1.77063 9.086711,0.0693 z M 123,63.405695 C 118.46767,61.442521 114.30665,57.452342 111.88809,52.75 L 109.95935,49 H 60.134664 C 13.135307,49 10.216128,48.8963 8.6549876,47.171259 6.350406,44.624725 6.5907426,41.400063 9.2225062,39.556704 11.161022,38.198915 17.739065,38 60.702182,38 h 49.257168 l 1.96141,-3.84468 c 2.474,-4.849432 7.8184,-9.584102 12.59944,-11.161987 2.03046,-0.670111 6.34639,-1.026365 9.59095,-0.791674 7.109,0.514219 12.81286,4.072895 17.37039,10.837512 5.54139,8.224925 3.67301,18.994867 -4.62554,26.663101 -5.55861,5.136403 -16.59299,6.849388 -23.856,3.703423 z M 137.83531,52.722511 C 140.7676,51.276296 143,47.052042 143,42.94966 143,38.358561 137.42424,33 132.64705,33 c -4.84432,0 -8.51751,1.84881 -10.22205,5.145025 -3.55386,6.872418 -0.39759,13.619504 7.575,16.192904 1.76467,0.569602 4.58333,-0.01152 7.83531,-1.615418 z"
       id="path4001"
       inkscape:connector-curvature="0" />
  </g>
</svg>
