<?xml version="1.0" encoding="UTF-8" standalone="no"?>
<!-- Created with Inkscape (http://www.inkscape.org/) -->

<svg
   xmlns:dc="http://purl.org/dc/elements/1.1/"
   xmlns:cc="http://creativecommons.org/ns#"
   xmlns:rdf="http://www.w3.org/1999/02/22-rdf-syntax-ns#"
   xmlns:svg="http://www.w3.org/2000/svg"
   xmlns="http://www.w3.org/2000/svg"
   xmlns:sodipodi="http://sodipodi.sourceforge.net/DTD/sodipodi-0.dtd"
   xmlns:inkscape="http://www.inkscape.org/namespaces/inkscape"
   version="1.1"
   id="svg3873"
   width="17"
   height="19"
   viewBox="0 0 17 19"
   sodipodi:docname="payments.svg"
   inkscape:version="0.92.4 (5da689c313, 2019-01-14)">
  <metadata
     id="metadata3879">
    <rdf:RDF>
      <cc:Work
         rdf:about="">
        <dc:format>image/svg+xml</dc:format>
        <dc:type
           rdf:resource="http://purl.org/dc/dcmitype/StillImage" />
        <dc:title />
      </cc:Work>
    </rdf:RDF>
  </metadata>
  <defs
     id="defs3877" />
  <sodipodi:namedview
     pagecolor="#ffffff"
     bordercolor="#666666"
     borderopacity="1"
     objecttolerance="10"
     gridtolerance="10"
     guidetolerance="10"
     inkscape:pageopacity="0"
     inkscape:pageshadow="2"
     inkscape:window-width="1366"
     inkscape:window-height="706"
     id="namedview3875"
     showgrid="false"
     fit-margin-top="0"
     fit-margin-left="0"
     fit-margin-right="0"
     fit-margin-bottom="0"
     inkscape:zoom="21.454545"
     inkscape:cx="1.1017436"
     inkscape:cy="11.341892"
     inkscape:window-x="-8"
     inkscape:window-y="-8"
     inkscape:window-maximized="1"
     inkscape:current-layer="g3883" />
  <g
     id="g3883"
     transform="matrix(0.10956531,0,0,0.10795455,0.13183347,0)">
    <path
       style="display:inline;fill:#999794"
       d="M 39.112326,140.41945 C 18.360983,134.83872 4,116.05761 4,94.5 4,71.29588 20.734039,51.705216 43.809835,47.894329 74.281441,42.86205 101.7972,70.611955 97.028999,101.56636 c -2.172639,14.10443 -11.848076,28.28353 -23.644716,34.65073 -10.325514,5.57316 -23.271957,7.16063 -34.271957,4.20236 z M 60.068499,129.41174 C 78.030556,124.15935 89.201101,106.65301 85.967833,88.822608 84.534732,80.919536 81.999357,75.982712 76.177019,69.758161 58.960782,51.352612 29.009623,56.522797 18.211438,79.76421 15.956119,84.618433 15.542958,86.883262 15.523267,94.5 c -0.01981,7.66443 0.367783,9.83399 2.611898,14.62001 7.841247,16.72301 25.279652,25.16153 41.933334,20.29173 z M 48,119.55902 c 0,-2.86121 -1.084236,-3.70508 -6.5,-5.05902 -2.834892,-0.70872 -4.074488,-1.58255 -4.255728,-3 -0.439457,-3.43691 1.060541,-4.71481 4.153796,-3.53875 3.507091,1.33339 10.179362,1.33527 12.667673,0.004 C 55.305147,107.30151 56,105.87285 56,103.98787 c 0,-3.24865 -1.936892,-4.886309 -8.432426,-7.129707 -2.162834,-0.74699 -5.425334,-2.761298 -7.25,-4.47624 C 37.65827,89.882532 37,88.488143 37,85.354429 c 0,-4.848171 1.996456,-7.801811 6.998283,-10.353553 2.869388,-1.463852 3.948052,-2.685007 4.183918,-4.736611 0.469769,-4.08612 4.335959,-4.423466 5.131109,-0.447717 0.494853,2.474265 1.279019,3.095172 5.135362,4.066211 4.679904,1.178413 5.240958,1.960138 3.603176,5.020361 -0.832072,1.554742 -1.554894,1.647348 -5.904112,0.756421 -4.148236,-0.849756 -5.37904,-0.738005 -7.551848,0.685674 -5.031841,3.296989 -2.973032,6.772762 6.476438,10.933815 C 61.723471,94.207846 65,97.972113 65,102.68452 c 0,5.22066 -2.391804,8.80934 -7.45869,11.19106 C 53.638985,115.70989 53,116.43164 53,119.00512 53,121.53299 52.610161,122 50.5,122 48.516118,122 48,121.49607 48,119.55902 Z m 60,11.84498 c 0,-0.3278 1.58108,-3.9278 3.5135,-8 L 115.027,116 h 17.24672 c 17.08412,0 17.27255,0.0239 19.9865,2.54047 4.27734,3.96618 3.31974,9.07402 -2.2402,11.94918 C 147.70715,131.68568 143.03082,132 127.54966,132 116.79735,132 108,131.7318 108,131.404 Z m 9.91667,-27.81642 c -0.22917,-0.22684 -0.26724,-3.601836 -0.0846,-7.500003 L 118.16412,89 h 15.67816 c 15.40433,0 15.72601,0.04437 18.41794,2.540469 C 153.79142,92.960275 155,95.148045 155,96.5 c 0,1.351955 -1.20858,3.53972 -2.73978,4.95953 C 149.5696,103.95441 149.24061,104 133.92688,104 c -8.57645,0 -15.78105,-0.18559 -16.01021,-0.41242 z M 115.30475,75.25 C 114.95688,74.2875 113.621,71.081506 112.33613,68.12557 111.05126,65.169633 110,62.357133 110,61.87557 110,61.394006 118.36949,61 128.59887,61 c 14.83409,0 19.26899,0.317991 21.9094,1.570948 5.50635,2.612937 5.79485,9.637351 0.52369,12.751099 C 148.68935,76.705864 145.36442,77 132.06432,77 117.6128,77 115.87152,76.818179 115.30475,75.25 Z M 98.437091,46.898218 c -1.6154,-1.70598 -5.852281,-5.19348 -9.415291,-7.75 L 82.543601,34.5 115.0218,34.2015 c 28.72253,-0.263983 32.84481,-0.106188 35.64855,1.364575 5.61091,2.943326 5.51989,10.166705 -0.16208,12.862977 C 147.79845,49.714946 143.04032,50 124.28596,50 h -22.91178 z"
       id="path3887"
       inkscape:connector-curvature="0" />
  </g>
</svg>
