<?xml version="1.0" encoding="UTF-8" standalone="no"?>
<!-- Created with Inkscape (http://www.inkscape.org/) -->

<svg
   xmlns:dc="http://purl.org/dc/elements/1.1/"
   xmlns:cc="http://creativecommons.org/ns#"
   xmlns:rdf="http://www.w3.org/1999/02/22-rdf-syntax-ns#"
   xmlns:svg="http://www.w3.org/2000/svg"
   xmlns="http://www.w3.org/2000/svg"
   xmlns:sodipodi="http://sodipodi.sourceforge.net/DTD/sodipodi-0.dtd"
   xmlns:inkscape="http://www.inkscape.org/namespaces/inkscape"
   version="1.1"
   id="svg3845"
   width="17"
   height="19.353001"
   viewBox="0 0 17 19.353001"
   sodipodi:docname="statistic.svg"
   inkscape:version="0.92.4 (5da689c313, 2019-01-14)">
  <metadata
     id="metadata3851">
    <rdf:RDF>
      <cc:Work
         rdf:about="">
        <dc:format>image/svg+xml</dc:format>
        <dc:type
           rdf:resource="http://purl.org/dc/dcmitype/StillImage" />
        <dc:title />
      </cc:Work>
    </rdf:RDF>
  </metadata>
  <defs
     id="defs3849" />
  <sodipodi:namedview
     pagecolor="#ffffff"
     bordercolor="#666666"
     borderopacity="1"
     objecttolerance="10"
     gridtolerance="10"
     guidetolerance="10"
     inkscape:pageopacity="0"
     inkscape:pageshadow="2"
     inkscape:window-width="1366"
     inkscape:window-height="706"
     id="namedview3847"
     showgrid="false"
     fit-margin-top="0"
     fit-margin-left="0"
     fit-margin-right="0"
     fit-margin-bottom="0"
     inkscape:zoom="10.727273"
     inkscape:cx="-6.6077523"
     inkscape:cy="-2.5093004"
     inkscape:window-x="-8"
     inkscape:window-y="-8"
     inkscape:window-maximized="1"
     inkscape:current-layer="g3855" />
  <g
     id="g3855"
     transform="matrix(0.10946534,0,0,0.10996023,0.0214916,0)">
    <path
       style="display:inline;fill:#b0afac"
       d="m 3.5975507,163.11334 c -2.2493778,-1.36531 -2.2946171,-1.76554 -2.9388811,-26 C 0.29878455,123.576 0.0033582,90.182244 0.00216658,62.904988 6.7583609e-5,14.857028 0.0613538,13.254451 1.9668641,11.529988 4.6985366,9.0578579 8.990438,9.2699684 11.189572,11.985784 12.896958,14.094317 13,18.074138 13,81.910784 13,133.22462 13.290304,149.8903 14.2,150.8 c 0.909757,0.90976 17.614609,1.2 69.065741,1.2 44.869229,0 68.521169,0.35078 69.799999,1.03518 2.69265,1.44107 2.72645,8.47048 0.0476,9.90415 -1.20619,0.64554 -28.09689,1.10906 -74.55895,1.28518 -60.551971,0.22954 -73.0533327,0.0442 -74.9568593,-1.11117 z M 38,137.72135 c -4.363014,-2.18006 -5.996711,-7.08337 -5.998446,-18.00347 -0.0019,-12.06101 1.455151,-16.1751 6.470878,-18.27081 4.487361,-1.874937 7.851072,-1.03975 11.030516,2.7388 C 51.858929,106.9858 52,107.8244 52,119.02967 52,132.13318 51.099169,135.38024 46.854975,137.575 43.486038,139.31714 41.267104,139.35381 38,137.72135 Z m 37.305764,-2.13248 c -2.746744,-2.36041 -2.812826,-2.66723 -3.141476,-14.58596 -0.358584,-13.00428 0.487581,-16.94523 4.196035,-19.54274 4.520965,-3.166603 11.629535,-1.10866 14.091485,4.07952 1.838056,3.87341 2.154578,21.42238 0.473369,26.2451 -2.195654,6.29846 -10.393438,8.29501 -15.619413,3.80408 z M 114.92308,135.07692 112,132.15385 V 109 85.846154 l 2.92308,-2.923077 c 4.03431,-4.034317 9.11953,-4.034317 13.15384,0 L 131,85.846154 V 109 132.15385 l -2.92308,2.92307 C 125.91282,137.24103 124.20513,138 121.5,138 c -2.70513,0 -4.41282,-0.75897 -6.57692,-2.92308 z M 24.286798,85.800564 C 21.355868,82.142418 21.8528,80.266574 28.251463,70.834566 56.316732,29.464699 58.125658,27.316813 62.957205,29.625606 63.963606,30.106523 71.394267,36.575 79.469784,44 87.545301,51.425 94.77228,57.848142 95.529738,58.273649 96.517763,58.828678 100.38172,54.78184 109.20347,43.952739 115.96656,35.650732 121.5,28.327589 121.5,27.67909 121.5,26.973656 119.25184,26.299143 115.90359,26 109.38371,25.417495 107,23.819859 107,20.032543 107,14.711444 109.15317,14 125.25731,14 c 11.69557,0 14.9006,0.300763 16.11178,1.511947 2.13357,2.133573 2.91979,8.811938 2.46949,20.976532 -0.40788,11.018738 -1.04214,12.608537 -5.57193,13.966301 C 135.13126,51.394585 131,47.140524 131,42.97213 c 0,-2.144964 -0.43208,-3.017823 -1.38381,-2.795454 -0.7611,0.177828 -7.53821,7.859054 -15.06024,17.069391 C 105.6916,68.1 100.01852,74.208231 98.432475,74.606304 95.125358,75.436337 93.501328,74.245808 77.177209,59.024695 69.494515,51.861113 62.599222,46.006799 61.854337,46.015109 61.109452,46.023419 54.2,55.135919 46.5,66.265109 33.039134,85.720763 32.36192,86.511575 28.914409,86.800564 c -2.077633,0.174158 -4.023824,-0.246402 -4.627611,-1 z"
       id="path3861"
       inkscape:connector-curvature="0" />
  </g>
</svg>
